<?xml version="1.0" encoding="utf-8"?>
<!-- Generator: Adobe Illustrator 23.0.1, SVG Export Plug-In . SVG Version: 6.00 Build 0)  -->
<svg version="1.1" id="Layer_1" xmlns="http://www.w3.org/2000/svg" xmlns:xlink="http://www.w3.org/1999/xlink" x="0px" y="0px"
	 width="180px" height="180px" viewBox="0 0 180 180" style="enable-background:new 0 0 180 180;" xml:space="preserve">
<style type="text/css">
	.st0{opacity:0.633;fill:#B89794;enable-background:new    ;}
	.st1{fill:#FED0CB;}
	.st2{fill:#F2ABA3;}
	.st3{opacity:0.92;fill:url(#Path_237-2_1_);enable-background:new    ;}
	.st4{fill:#FFFFFF;}
</style>
<g id="_90-Day_Guarantee" transform="translate(-223 -3719.772)">
	<path id="Subtraction_17" class="st0" d="M397.8,3877.4L397.8,3877.4c1.7-2,2.8-4.5,3.3-7c0.5-2.7,0.3-5.6-0.6-8.2l-25.8-74
		c-1-2.9-2.9-5.5-5.4-7.3c-2.4-1.8-5.4-2.8-8.4-2.8H263c-3.5,0-6.9,1.3-9.5,3.7c2.7-3.4,6.8-5.4,11.2-5.4h97.8c3,0,6,1,8.4,2.8
		c2.5,1.8,4.4,4.4,5.4,7.3l25.8,74c1.1,3,1.2,6.3,0.4,9.4C401.7,3872.8,400.1,3875.4,397.8,3877.4z"/>
	<g id="Group_34" transform="translate(322.913 3733.868)">
		<path id="Subtraction_18" class="st1" d="M-10.8,89.4c-2.9,0-5.9-0.3-8.8-0.9c-5.6-1.1-10.8-3.4-15.5-6.5
			c-7-4.7-12.4-11.3-15.7-19.1c-1.1-2.6-2-5.4-2.5-8.1c-1.2-5.8-1.2-11.7,0-17.5c1.1-5.6,3.4-10.8,6.5-15.5
			c4.7-7,11.3-12.4,19.1-15.7c2.6-1.1,5.4-2,8.1-2.5c5.8-1.2,11.7-1.2,17.5,0C3.5,4.6,8.8,6.9,13.5,10c7,4.7,12.4,11.3,15.7,19.1
			c1.1,2.6,2,5.4,2.5,8.1c1.2,5.8,1.2,11.7,0,17.5c-1.1,5.6-3.4,10.8-6.5,15.5c-4.7,7-11.3,12.4-19.1,15.7c-2.6,1.1-5.4,2-8.1,2.5
			C-4.9,89.1-7.9,89.4-10.8,89.4z M-10.8,11.9c-6.8,0-13.5,2-19.1,5.8c-5.5,3.7-9.8,8.9-12.4,15c-4.5,10.6-3.3,22.8,3.1,32.4
			c3.7,5.5,8.9,9.8,15,12.4c10.6,4.5,22.8,3.3,32.4-3.1c5.5-3.7,9.8-8.9,12.4-15c4.5-10.6,3.3-22.8-3.1-32.4
			c-3.7-5.5-8.9-9.8-15-12.4C-1.7,12.8-6.2,11.9-10.8,11.9L-10.8,11.9z"/>
		<path id="Subtraction_19" class="st2" d="M-10.8,89.4c-2.9,0-5.9-0.3-8.8-0.9c-5.6-1.1-10.8-3.4-15.5-6.5
			c-7-4.7-12.4-11.3-15.7-19.1c-1.1-2.6-2-5.4-2.5-8.1c-1.2-5.8-1.2-11.7,0-17.5c1.1-5.6,3.4-10.8,6.5-15.5
			c4.7-7,11.3-12.4,19.1-15.7c2.6-1.1,5.4-2,8.1-2.5c5.8-1.2,11.7-1.2,17.5,0C3.5,4.6,8.8,6.9,13.5,10c7,4.7,12.4,11.3,15.7,19.1
			c1.1,2.6,2,5.4,2.5,8.1c1.2,5.8,1.2,11.7,0,17.5c-1.1,5.6-3.4,10.8-6.5,15.5c-4.7,7-11.3,12.4-19.1,15.7c-2.6,1.1-5.4,2-8.1,2.5
			C-4.9,89.1-7.9,89.4-10.8,89.4z M-10.8,11.9c-6.8,0-13.5,2-19.1,5.8c-5.5,3.7-9.8,8.9-12.4,15c-4.5,10.6-3.3,22.8,3.1,32.4
			c3.7,5.5,8.9,9.8,15,12.4c10.6,4.5,22.8,3.3,32.4-3.1c5.5-3.7,9.8-8.9,12.4-15c4.5-10.6,3.3-22.8-3.1-32.4
			c-3.7-5.5-8.9-9.8-15-12.4C-1.7,12.8-6.2,11.9-10.8,11.9L-10.8,11.9z"/>
	</g>
	<g transform="matrix(1, 0, 0, 1, 223, 3719.77)">
		
			<linearGradient id="Path_237-2_1_" gradientUnits="userSpaceOnUse" x1="-153.7528" y1="466.8687" x2="-164.2669" y2="475.1806" gradientTransform="matrix(175.1211 0 0 -103.1069 36021.8008 52446.7852)">
			<stop  offset="0" style="stop-color:#FCFCFC;stop-opacity:0.502"/>
			<stop  offset="1" style="stop-color:#FFFFFF;stop-opacity:0.2"/>
		</linearGradient>
		<path id="Path_237-2" class="st3" d="M163.5,163.3H14.7c-10.1,0-17.2-10.5-13.9-20.5l24.9-74.2c1.9-6.1,7.5-10.2,13.9-10.3h98
			c6.3,0.1,11.8,4.1,13.8,10.1l25.8,74.2C180.8,152.7,173.7,163.3,163.5,163.3z"/>
	</g>
	<circle id="Ellipse_575" class="st4" cx="281.6" cy="3806.7" r="9.7"/>
	<circle id="Ellipse_576" class="st4" cx="339.6" cy="3806.7" r="9.7"/>
</g>
</svg>
