<?xml version="1.0" encoding="utf-8"?>
<!-- Generator: Adobe Illustrator 23.0.1, SVG Export Plug-In . SVG Version: 6.00 Build 0)  -->
<svg version="1.1" id="Layer_1" xmlns="http://www.w3.org/2000/svg" xmlns:xlink="http://www.w3.org/1999/xlink" x="0px" y="0px"
	 width="1063.6px" height="1171.1px" viewBox="0 0 1063.6 1171.1" style="enable-background:new 0 0 1063.6 1171.1;"
	 xml:space="preserve">
<style type="text/css">
	.st0{fill:#FFFFFF;}
	.st1{fill:none;stroke:#020202;stroke-width:3;stroke-miterlimit:10;stroke-dasharray:5;}
</style>
<g>
	<path id="Subtraction_10_1_" class="st0" d="M1052.6,0H832.8c28.5,129.7,15.2,266.3-39.6,389.7c-8.7,19.6-18.4,38.7-29,57.3
		c-10.5,18.5-22.1,36.6-34.5,54.1c-12.3,17.3-25.6,34.3-39.7,50.5c-14,16.1-28.9,31.8-44.4,46.6s-32,29-48.9,42.3
		c-17,13.3-34.8,26-53,37.7C525.4,690,506.3,701,486.9,711c-19.5,10.1-39.8,19.4-60.2,27.6c-20.6,8.3-41.9,15.7-63.3,22
		c-21.6,6.4-43.8,11.8-66,16.2c-22.5,4.4-45.5,7.7-68.4,9.9c-23.2,2.3-46.9,3.4-70.4,3.4s-47.2-1.1-70.4-3.4
		c-22.9-2.2-45.9-5.6-68.4-9.9c-6.4-1.3-12.8-2.6-19.2-4v210.1c21.7,3.6,43.6,6.5,65.5,8.6c30.5,2.9,61.7,4.4,92.5,4.4
		s62-1.5,92.5-4.4c19.7-1.9,39.4-4.4,59-7.6c10.3-1.7,20.7-3.5,30.9-5.5c29.1-5.7,58.3-12.8,86.7-21.2c28.1-8.3,56-18.1,83.2-29
		c26.8-10.8,53.5-23,79.1-36.3c25.5-13.2,50.6-27.7,74.6-43.2c23.9-15.4,47.4-32.1,69.7-49.6s43.9-36.2,64.3-55.6
		c20.4-19.4,40.1-40,58.4-61.2c18.4-21.2,35.9-43.5,52.1-66.3c16.3-22.9,31.5-46.8,45.3-71c14-24.5,26.7-49.6,38.1-75.3
		C1058.6,321.1,1078.6,157.7,1052.6,0z"/>
	<path class="st1" d="M378.5,1171.1c0-1.8,0.1-3.5,0.1-5.3c0-69.7-25.9-133.3-68.5-181.8c-50.5-57.4-124.5-93.6-206.9-93.6
		c-36.3,0-70.9,7-102.6,19.8"/>
</g>
</svg>
