<?xml version="1.0" encoding="utf-8"?>
<!-- Generator: Adobe Illustrator 23.0.1, SVG Export Plug-In . SVG Version: 6.00 Build 0)  -->
<svg version="1.1" id="Layer_1" xmlns="http://www.w3.org/2000/svg" xmlns:xlink="http://www.w3.org/1999/xlink" x="0px" y="0px"
	 width="180px" height="180px" viewBox="0 0 180 180" style="enable-background:new 0 0 180 180;" xml:space="preserve">
<style type="text/css">
	.st0{fill:#F1AAA2;}
	.st1{opacity:0.92;fill:url(#Rectangle_1106-2_1_);enable-background:new    ;}
	.st2{opacity:0.482;fill:#F1AAA2;enable-background:new    ;}
	.st3{fill:#FCC7C1;}
</style>
<g id="Instant_Convenience" transform="translate(-1391 -3697.313)">
	<path id="Rectangle_1117" class="st0" d="M1428.1,3785.2h18.5c5.7,0,10.4,4.7,10.4,10.4v0.3c0,5.7-4.7,10.4-10.4,10.4h-18.5
		c-5.7,0-10.4-4.7-10.4-10.4v-0.3C1417.7,3789.9,1422.3,3785.2,1428.1,3785.2z"/>
	<path id="Rectangle_1118" class="st0" d="M1428.1,3820.9h48c5.7,0,10.4,4.7,10.4,10.4v0.3c0,5.7-4.7,10.4-10.4,10.4h-48
		c-5.7,0-10.4-4.7-10.4-10.4v-0.3C1417.7,3825.6,1422.3,3820.9,1428.1,3820.9z"/>
	<g transform="matrix(1, 0, 0, 1, 1391, 3697.31)">
		
			<linearGradient id="Rectangle_1106-2_1_" gradientUnits="userSpaceOnUse" x1="-205.6242" y1="543.6803" x2="-204.5243" y2="542.4479" gradientTransform="matrix(97.308 0 0 -117.852 20020.0645 64094.6563)">
			<stop  offset="0" style="stop-color:#FFFFFF;stop-opacity:0.502"/>
			<stop  offset="1" style="stop-color:#FFFFFF;stop-opacity:0.2"/>
		</linearGradient>
		<path id="Rectangle_1106-2" class="st1" d="M13,14.9h100.4c7.2,0,13,5.8,13,13v127.1c0,7.2-5.8,13-13,13H13c-7.2,0-13-5.8-13-13
			V27.9C0,20.7,5.8,14.9,13,14.9z"/>
	</g>
	<g transform="matrix(1, 0, 0, 1, 1391, 3697.31)">
		<path id="Subtraction_15-2" class="st2" d="M121.9,164L121.9,164c1.3-2.1,2.1-4.5,2.1-7V28.9c0-7.2-5.8-13-13-13H11
			c-2.5,0-5,0.7-7.1,2.1c2.4-3.7,6.5-6,10.9-6h100c7.2,0,13,5.8,13,13v128.1C127.8,157.6,125.6,161.7,121.9,164z"/>
	</g>
	<g id="Group_36" transform="translate(1493.032 3768.209)">
		<path id="Rectangle_1114" class="st3" d="M-30.1-12.9L-30.1-12.9c5.8-4.3,14-3.2,18.3,2.6l25.3,33.5c4.3,5.8,3.2,14-2.6,18.3l0,0
			c-5.8,4.3-14,3.2-18.3-2.6L-32.7,5.4C-37.1-0.4-35.9-8.6-30.1-12.9z"/>
		<g id="Group_35" transform="translate(-0.001 0)">
			<path id="Rectangle_1115" class="st0" d="M-30.5-13.3L-30.5-13.3c5.8-4.3,14-3.2,18.3,2.6l25.3,33.5c4.3,5.8,3.2,14-2.6,18.3l0,0
				c-5.8,4.3-14,3.2-18.3-2.6L-33.1,5C-37.4-0.7-36.3-8.9-30.5-13.3z"/>
			<path id="Rectangle_1116" class="st0" d="M-5.1,39L-5.1,39C-9.8,33.5-9,25.2-3.5,20.6l60-50.3c5.5-4.6,13.8-3.9,18.4,1.6l0,0
				c4.6,5.5,3.9,13.8-1.6,18.4l-60,50.3C7.8,45.2-0.5,44.5-5.1,39z"/>
		</g>
	</g>
</g>
</svg>
