<svg xmlns="http://www.w3.org/2000/svg" width="21.5" height="24.571" viewBox="0 0 21.5 24.571">
  <path id="regular_user" data-name="regular user" d="M15.05,14.589c-1.377,0-2.04.768-4.3.768s-2.918-.768-4.3-.768A6.452,6.452,0,0,0,0,21.039v1.229a2.3,2.3,0,0,0,2.3,2.3H19.2a2.3,2.3,0,0,0,2.3-2.3V21.039A6.452,6.452,0,0,0,15.05,14.589ZM19.2,22.268H2.3V21.039A4.154,4.154,0,0,1,6.45,16.893c.7,0,1.838.768,4.3.768,2.481,0,3.595-.768,4.3-.768A4.154,4.154,0,0,1,19.2,21.039ZM10.75,13.821A6.911,6.911,0,1,0,3.839,6.911,6.912,6.912,0,0,0,10.75,13.821Zm0-11.518A4.607,4.607,0,1,1,6.143,6.911,4.614,4.614,0,0,1,10.75,2.3Z" fill="#fff"/>
</svg>
