<?xml version="1.0" encoding="utf-8"?>
<!-- Generator: Adobe Illustrator 23.0.1, SVG Export Plug-In . SVG Version: 6.00 Build 0)  -->
<svg version="1.1" id="Layer_1" xmlns="http://www.w3.org/2000/svg" xmlns:xlink="http://www.w3.org/1999/xlink" x="0px" y="0px"
	 width="1918px" height="2335.2px" viewBox="0 0 1918 2335.2" style="enable-background:new 0 0 1918 2335.2;" xml:space="preserve"
	>
<style type="text/css">
	.st0{opacity:0.8;fill:#F35C4B;enable-background:new    ;}
	.st1{fill:#2D3336;}
	.st2{fill:url(#SVGID_1_);}
	.st3{opacity:0.796;fill:#F35D4B;enable-background:new    ;}
	.st4{fill:url(#SVGID_2_);}
</style>
<g>
	<path class="st0" d="M1304.3,571.8c-0.9,17.5-0.9,35.2-0.1,52.6c0.8,17.7,2.6,35.5,5.2,53c2.6,17.8,6.2,35.5,10.6,53
		c4.5,17.8,9.9,35.4,16.2,52.7c6.3,17.3,13.4,34.2,21.4,50.8c7.9,16.2,16.5,32.1,25.9,47.4c9.3,15.1,19.4,29.9,30.1,43.9
		c10.6,13.9,22,27.5,33.9,40.3c11.8,12.7,24.4,25,37.4,36.5c12.9,11.4,26.5,22.4,40.5,32.5c13.9,10.1,28.5,19.6,43.3,28.3
		c14.8,8.7,30.2,16.8,45.7,24s31.6,13.8,47.8,19.6c16.2,5.8,32.9,10.8,49.5,14.9c16.7,4.2,33.9,7.6,50.9,10.2
		c17.2,2.6,34.6,4.3,52,5.2c17.5,0.9,35.2,0.9,52.6,0.1c16.9-0.8,34-2.4,50.8-4.8v92c-9.2,2.8-18.5,5.4-27.9,7.7
		c-20.3,5.1-40.9,9.3-61.6,12.3c-20.3,3-41.1,5-61.6,6c-20.3,1-40.9,0.9-61.2-0.1c-17.6-0.9-35.3-2.6-52.9-5c-2.5-0.3-5-0.7-7.5-1.1
		c-19.8-3-39.7-6.9-59.1-11.8c-19.4-4.8-38.7-10.7-57.5-17.4c-18.8-6.7-37.4-14.3-55.5-22.7c-18.1-8.4-35.9-17.8-53.1-27.9
		s-34.1-21.2-50.3-32.9c-16.2-11.8-32-24.5-47-37.7c-15.1-13.4-29.7-27.6-43.4-42.4c-13.8-14.9-27.1-30.6-39.4-46.8
		c-12.4-16.3-24.2-33.5-35-51c-11-17.8-21-36.2-30.1-55.1c-9.3-19.2-17.6-38.9-24.9-58.9c-7.3-20.1-13.6-40.5-18.8-61.2
		c-5.1-20.3-9.3-40.9-12.3-61.6c-3-20.3-5-41.1-6-61.6c-1-20.3-0.9-40.9,0.1-61.2c1-20.1,3.1-40.4,6-60.4c3-19.8,6.9-39.7,11.8-59.1
		c4.8-19.4,10.7-38.7,17.4-57.5c6.7-18.8,14.3-37.5,22.7-55.5c8.4-18.1,17.8-35.9,27.9-53.1s21.2-34.1,32.9-50.3
		c11.8-16.2,24.5-32.1,37.7-47.1c13.4-15.1,27.6-29.7,42.4-43.4c14.9-13.8,30.6-27.1,46.8-39.4c16.4-12.4,33.5-24.2,51-35
		c17.9-11,36.2-21,55.1-30.1c19.2-9.3,38.9-17.6,59-24.9c14.1-5.1,28.6-9.8,43-13.9c14.2-4.1,28.8-7.7,43.2-10.7
		c14.3-3,28.9-5.5,43.3-7.5c14.3-2,28.9-3.4,43.3-4.4c57-3.8,114.3,0.4,170.2,12.2c17.3,3.7,34.4,8.1,51.3,13.2v39.5
		c-41.8-6-84.2-7.1-126.3-3.1c-22.6,2.1-45,5.7-67.1,10.7c-22.6,5.1-44.9,11.6-66.7,19.6c-17.3,6.3-34.2,13.4-50.8,21.4
		c-16.2,7.9-32.1,16.5-47.4,25.9c-15.1,9.3-29.9,19.4-43.9,30.1c-13.9,10.6-27.5,22-40.3,33.9c-12.7,11.8-25,24.4-36.5,37.4
		c-11.4,12.9-22.4,26.5-32.5,40.5c-10.1,13.9-19.6,28.5-28.3,43.3c-8.7,14.8-16.8,30.2-24,45.7c-7.3,15.5-13.8,31.6-19.6,47.8
		c-5.8,16.2-10.8,32.9-14.9,49.5c-4.2,16.8-7.6,33.9-10.2,50.9C1306.9,537,1305.2,554.5,1304.3,571.8z"/>
	<rect y="1545.8" class="st1" width="1918" height="533"/>
	
		<linearGradient id="SVGID_1_" gradientUnits="userSpaceOnUse" x1="959" y1="-1.31" x2="959" y2="1174.79" gradientTransform="matrix(1 0 0 -1 0 2333.8899)">
		<stop  offset="0" style="stop-color:#FFFFFF;stop-opacity:0.502"/>
		<stop  offset="1" style="stop-color:#FFFFFF;stop-opacity:0.2"/>
	</linearGradient>
	<polygon class="st2" points="1918,1159.1 1918,1698.8 772.6,2078.8 0,2335.2 0,1780 46.2,1765 400.7,1650.3 501.4,1617.7 
		723.4,1545.8 1653,1244.9 	"/>
	<path class="st3" d="M641.5,2005.2c-1.1,29-14.6,55.4-35.8,73.6c-15.8,13.6-35.9,22.6-58.3,24.6l-412.8,36.2l-14.3-60.8l-74-313.8
		L0,1568.9v-109.2c41.3,1.4,130.8,14.3,253.6,86.1c7.6,4.4,15.3,9.1,23.2,14c38.5,24,79.9,53.7,123.9,90.5
		c65.2,54.4,136,124.2,211.1,213.6c0,0,21.3,59.4,29.1,125.2C641.5,1994.5,641.7,1999.9,641.5,2005.2z"/>
	
		<linearGradient id="SVGID_2_" gradientUnits="userSpaceOnUse" x1="-379.582" y1="-511.6794" x2="1856.55" y2="2983.0818" gradientTransform="matrix(1 0 0 -1 0 2333.8899)">
		<stop  offset="0" style="stop-color:#FFFFFF"/>
		<stop  offset="1" style="stop-color:#EDEDED"/>
	</linearGradient>
	<path class="st4" d="M674,1729.8v207.5c0,27.1-12.5,51.8-32.5,67.9c-9.6,7.8-21.1,13.6-33.7,16.7L379,2078.8l-244.5,60.8L0,2173
		v-684.5l222.4,57.3l54.4,14l224.6,57.9l107.2,27.6C647.1,1655.2,674,1690,674,1729.8z"/>
</g>
</svg>
