<svg xmlns="http://www.w3.org/2000/svg" width="28.523" height="28.499" viewBox="0 0 28.523 28.499">
  <path id="solid_weight-hanging" data-name="solid weight-hanging" d="M26.411,23.086l-3.78-15.12a1.686,1.686,0,0,0-1.6-1.331H17.915a4.969,4.969,0,1,0-9.329,0H5.468a1.686,1.686,0,0,0-1.6,1.331L.09,23.086a2.67,2.67,0,0,0,2.4,3.423H24.015A2.67,2.67,0,0,0,26.411,23.086ZM13.25,6.634a1.656,1.656,0,1,1,1.656-1.656A1.658,1.658,0,0,1,13.25,6.634Z" transform="translate(1.011 0.99)" fill="none" stroke="#fff" stroke-width="2"/>
</svg>
